<svg width="47" height="43" viewBox="0 0 47 43" fill="none" xmlns="http://www.w3.org/2000/svg">
<path d="M33.9041 0.590393C29.675 0.590393 25.8898 2.64654 23.5299 5.80086C22.3246 4.18588 20.7594 2.8741 18.9586 1.96964C17.1578 1.06517 15.1709 0.592929 13.1557 0.590393C5.98255 0.590393 0.164581 6.43173 0.164581 13.6516C0.164581 16.4321 0.608523 19.0023 1.37958 21.3855C5.0713 33.0682 16.4502 40.0544 22.0813 41.9704C22.8757 42.2508 24.1841 42.2508 24.9786 41.9704C30.6096 40.0544 41.9885 33.0682 45.6802 21.3855C46.4513 19.0023 46.8952 16.4321 46.8952 13.6516C46.8952 6.43173 41.0773 0.590393 33.9041 0.590393Z" fill="#6A52FF"/>
</svg>
