<svg width="48" height="43" viewBox="0 0 48 43" fill="none" xmlns="http://www.w3.org/2000/svg">
<path d="M22.727 7.07839L23.9276 8.6871L25.1302 7.07978C27.2203 4.28608 30.5689 2.47073 34.3033 2.47073C40.641 2.47073 45.7944 7.63348 45.7944 14.032C45.7944 16.6493 45.3771 19.0639 44.6523 21.3042L44.6522 21.3041L44.6491 21.3139C42.9107 26.8154 39.3439 31.2609 35.4781 34.5832C31.6057 37.9113 27.5195 40.0376 24.8946 40.9307L24.8865 40.9334L24.8785 40.9363C24.6918 41.0022 24.3476 41.061 23.9291 41.061C23.5106 41.061 23.1664 41.0022 22.9797 40.9363L22.9717 40.9334L22.9636 40.9307C20.3387 40.0376 16.2524 37.9113 12.38 34.5832C8.51425 31.2609 4.94749 26.8154 3.20904 21.3139L3.20907 21.3139L3.20592 21.3042C2.48112 19.0639 2.06375 16.6493 2.06375 14.032C2.06375 7.63379 7.21663 2.47124 13.5539 2.47073C15.3357 2.47312 17.0923 2.89072 18.6845 3.69041C20.277 4.49023 21.6611 5.65025 22.727 7.07839Z" stroke="#6A52FF" stroke-width="3"/>
</svg>
